<svg id="headset" xmlns="http://www.w3.org/2000/svg" width="15.672" height="15.672" viewBox="0 0 15.672 15.672">
  <g id="Group_6" data-name="Group 6">
    <g id="Group_5" data-name="Group 5">
      <path id="Path_1" data-name="Path 1" d="M3.673,6.214H2.464A5.388,5.388,0,0,1,12.891,4.743a.612.612,0,1,0,1.148-.425A6.612,6.612,0,0,0,1.225,6.543,2.45,2.45,0,0,0,0,8.663v2.081a2.452,2.452,0,0,0,2.449,2.449H3.673a.612.612,0,0,0,.612-.612V6.826A.612.612,0,0,0,3.673,6.214Zm-.612,5.755H2.449a1.226,1.226,0,0,1-1.224-1.224V8.663A1.226,1.226,0,0,1,2.449,7.438h.612Z" fill="#fff"/>
      <path id="Path_2" data-name="Path 2" d="M222.612,203h-1.224a.612.612,0,0,0-.612.612v6.4a.613.613,0,0,1-.612.612H218.3v.019a1.224,1.224,0,1,0,0,1.186v.019h1.867A1.839,1.839,0,0,0,222,210.01v-.031h.612a2.452,2.452,0,0,0,2.449-2.449v-2.081A2.452,2.452,0,0,0,222.612,203Zm1.224,4.53a1.226,1.226,0,0,1-1.224,1.224H222v-4.53h.612a1.226,1.226,0,0,1,1.224,1.224Z" transform="translate(-209.388 -196.786)" fill="#fff"/>
    </g>
  </g>
</svg>
