<svg id="linkedin_1_" data-name="linkedin (1)" xmlns="http://www.w3.org/2000/svg" width="17.551" height="17.551" viewBox="0 0 17.551 17.551">
  <path id="Path_163" data-name="Path 163" d="M19.828,19.586h0V13.149c0-3.149-.678-5.575-4.359-5.575a3.822,3.822,0,0,0-3.442,1.892h-.051v-1.6H8.489V19.586h3.635v-5.8c0-1.528.29-3,2.181-3,1.864,0,1.892,1.743,1.892,3.1v5.7Z" transform="translate(-2.281 -2.035)" fill="#fff"/>
  <path id="Path_164" data-name="Path 164" d="M.4,7.977H4.035V19.695H.4Z" transform="translate(-0.106 -2.143)" fill="#fff"/>
  <path id="Path_165" data-name="Path 165" d="M2.108,0A2.118,2.118,0,1,0,4.215,2.108,2.108,2.108,0,0,0,2.108,0Z" fill="#fff"/>
</svg>
