<svg xmlns="http://www.w3.org/2000/svg" width="18.839" height="13.246" viewBox="0 0 18.839 13.246">
  <g id="menu_3_" data-name="menu (3)" transform="translate(0 0)">
    <g id="Group_120" data-name="Group 120" transform="translate(0 5.887)">
      <g id="Group_119" data-name="Group 119">
        <path id="Path_160" data-name="Path 160" d="M18.1,236H.736a.736.736,0,0,0,0,1.472H18.1a.736.736,0,1,0,0-1.472Z" transform="translate(0 -236)" fill="#fff"/>
      </g>
    </g>
    <g id="Group_122" data-name="Group 122">
      <g id="Group_121" data-name="Group 121" transform="translate(0 0)">
        <path id="Path_161" data-name="Path 161" d="M18.1,76H.736a.736.736,0,1,0,0,1.472H18.1A.736.736,0,1,0,18.1,76Z" transform="translate(0 -76)" fill="#fff"/>
      </g>
    </g>
    <g id="Group_124" data-name="Group 124" transform="translate(0 11.774)">
      <g id="Group_123" data-name="Group 123" transform="translate(0 0)">
        <path id="Path_162" data-name="Path 162" d="M18.1,396H.736a.736.736,0,0,0,0,1.472H18.1a.736.736,0,0,0,0-1.472Z" transform="translate(0 -396)" fill="#fff"/>
      </g>
    </g>
  </g>
</svg>
