<svg xmlns="http://www.w3.org/2000/svg" width="17.555" height="14.263" viewBox="0 0 17.555 14.263">
  <g id="twitter_1_" data-name="twitter (1)" transform="translate(0 -48)">
    <g id="Group_125" data-name="Group 125" transform="translate(0 48)">
      <path id="Path_166" data-name="Path 166" d="M17.555,49.689a7.5,7.5,0,0,1-2.074.568,3.579,3.579,0,0,0,1.583-1.989,7.192,7.192,0,0,1-2.282.871A3.6,3.6,0,0,0,8.557,51.6a3.706,3.706,0,0,0,.083.821,10.187,10.187,0,0,1-7.418-3.764,3.6,3.6,0,0,0,1.106,4.81A3.554,3.554,0,0,1,.7,53.023v.039A3.615,3.615,0,0,0,3.586,56.6a3.592,3.592,0,0,1-.944.118,3.182,3.182,0,0,1-.681-.061,3.633,3.633,0,0,0,3.363,2.507A7.231,7.231,0,0,1,.861,60.7,6.741,6.741,0,0,1,0,60.648a10.132,10.132,0,0,0,5.521,1.615A10.173,10.173,0,0,0,15.764,52.022c0-.159-.005-.313-.013-.465A7.18,7.18,0,0,0,17.555,49.689Z" transform="translate(0 -48)" fill="#fff"/>
    </g>
  </g>
</svg>
