<svg xmlns="http://www.w3.org/2000/svg" width="12.011" height="10.301" viewBox="0 0 12.011 10.301">
  <g id="arrow_1_" data-name="arrow (1)" transform="translate(12.011 42.142) rotate(180)">
    <g id="Group_130" data-name="Group 130" transform="translate(0 31.842)">
      <path id="Path_170" data-name="Path 170" d="M11.289,36.149a.858.858,0,0,0-.149-.011H2.667l.185-.086a1.719,1.719,0,0,0,.486-.344l2.376-2.376a.889.889,0,0,0,.125-1.139.859.859,0,0,0-1.289-.112l-4.3,4.3a.859.859,0,0,0,0,1.215h0l4.3,4.3a.859.859,0,0,0,1.289-.086.889.889,0,0,0-.125-1.139L3.341,38.286a1.719,1.719,0,0,0-.43-.314l-.258-.116h8.439A.889.889,0,0,0,12,37.135.859.859,0,0,0,11.289,36.149Z" transform="translate(0 -31.842)" fill="#fff"/>
    </g>
  </g>
</svg>
